<svg width="119" height="47" viewBox="0 0 119 47" fill="none" xmlns="http://www.w3.org/2000/svg">
<path d="M19.88 17.04C19.6933 16.8533 19.3467 16.6 18.84 16.28C18.36 15.96 17.76 15.6533 17.04 15.36C16.3467 15.0667 15.5867 14.8133 14.76 14.6C13.9333 14.36 13.0933 14.24 12.24 14.24C10.7467 14.24 9.61333 14.52 8.84 15.08C8.09333 15.64 7.72 16.4267 7.72 17.44C7.72 18.2133 7.96 18.8267 8.44 19.28C8.92 19.7333 9.64 20.12 10.6 20.44C11.56 20.76 12.76 21.1067 14.2 21.48C16.0667 21.9333 17.68 22.4933 19.04 23.16C20.4267 23.8 21.48 24.6533 22.2 25.72C22.9467 26.76 23.32 28.1467 23.32 29.88C23.32 31.4 23.04 32.7067 22.48 33.8C21.92 34.8667 21.1467 35.7333 20.16 36.4C19.1733 37.0667 18.0533 37.56 16.8 37.88C15.5467 38.1733 14.2133 38.32 12.8 38.32C11.3867 38.32 9.97333 38.1733 8.56 37.88C7.14667 37.5867 5.78667 37.1733 4.48 36.64C3.17333 36.08 1.97333 35.4133 0.88 34.64L3.32 29.88C3.56 30.12 3.98667 30.44 4.6 30.84C5.21333 31.2133 5.96 31.6 6.84 32C7.72 32.3733 8.68 32.6933 9.72 32.96C10.76 33.2267 11.8133 33.36 12.88 33.36C14.3733 33.36 15.5067 33.1067 16.28 32.6C17.0533 32.0933 17.44 31.3733 17.44 30.44C17.44 29.5867 17.1333 28.92 16.52 28.44C15.9067 27.96 15.0533 27.5467 13.96 27.2C12.8667 26.8267 11.5733 26.4267 10.08 26C8.29333 25.4933 6.8 24.9333 5.6 24.32C4.4 23.68 3.50667 22.88 2.92 21.92C2.33333 20.96 2.04 19.76 2.04 18.32C2.04 16.3733 2.49333 14.7467 3.4 13.44C4.33333 12.1067 5.58667 11.1067 7.16 10.44C8.73333 9.74667 10.48 9.4 12.4 9.4C13.7333 9.4 14.9867 9.54667 16.16 9.84C17.36 10.1333 18.48 10.52 19.52 11C20.56 11.48 21.4933 12 22.32 12.56L19.88 17.04ZM26.9713 38V17.04H32.3313V38H26.9713ZM26.9713 14.12V8.8H32.3313V14.12H26.9713ZM69.7266 38H64.3666V26.24C64.3666 24.5867 64.0732 23.3733 63.4866 22.6C62.9266 21.8 62.1399 21.4 61.1266 21.4C60.0866 21.4 59.0866 21.8133 58.1266 22.64C57.1932 23.44 56.5266 24.4933 56.1266 25.8V38H50.7666V26.24C50.7666 24.56 50.4732 23.3333 49.8866 22.56C49.3266 21.7867 48.5399 21.4 47.5266 21.4C46.4866 21.4 45.4866 21.8 44.5266 22.6C43.5932 23.4 42.9266 24.4533 42.5266 25.76V38H37.1666V17.04H42.0066V20.92C42.8066 19.56 43.8732 18.52 45.2066 17.8C46.5399 17.0533 48.0732 16.68 49.8066 16.68C51.5399 16.68 52.8866 17.1067 53.8466 17.96C54.8332 18.8133 55.4599 19.8667 55.7266 21.12C56.5799 19.68 57.6599 18.5867 58.9666 17.84C60.2999 17.0667 61.7932 16.68 63.4466 16.68C64.7532 16.68 65.8066 16.92 66.6066 17.4C67.4332 17.8533 68.0732 18.48 68.5266 19.28C68.9799 20.0533 69.2866 20.9333 69.4466 21.92C69.6332 22.9067 69.7266 23.9067 69.7266 24.92V38ZM86.9531 38.4C85.3265 38.4 83.8865 38.04 82.6331 37.32C81.4065 36.5733 80.4465 35.5733 79.7531 34.32V46.52H74.3931V17.04H79.0731V20.64C79.8731 19.4133 80.8865 18.4533 82.1131 17.76C83.3398 17.04 84.7398 16.68 86.3131 16.68C87.7265 16.68 89.0198 16.96 90.1931 17.52C91.3931 18.08 92.4331 18.8667 93.3131 19.88C94.1931 20.8667 94.8731 22.0133 95.3531 23.32C95.8598 24.6 96.1131 25.9867 96.1131 27.48C96.1131 29.5067 95.7131 31.3467 94.9131 33C94.1398 34.6533 93.0598 35.9733 91.6731 36.96C90.3131 37.92 88.7398 38.4 86.9531 38.4ZM85.1531 33.84C85.9798 33.84 86.7265 33.6667 87.3931 33.32C88.0598 32.9733 88.6331 32.5067 89.1131 31.92C89.6198 31.3067 89.9931 30.6267 90.2331 29.88C90.4998 29.1067 90.6331 28.3067 90.6331 27.48C90.6331 26.6 90.4865 25.7867 90.1931 25.04C89.9265 24.2933 89.5265 23.64 88.9931 23.08C88.4598 22.4933 87.8331 22.04 87.1131 21.72C86.4198 21.4 85.6598 21.24 84.8331 21.24C84.3265 21.24 83.8065 21.3333 83.2731 21.52C82.7665 21.68 82.2731 21.92 81.7931 22.24C81.3131 22.56 80.8865 22.9333 80.5131 23.36C80.1665 23.7867 79.9131 24.2533 79.7531 24.76V29.68C80.0731 30.4533 80.4998 31.16 81.0331 31.8C81.5931 32.44 82.2331 32.9467 82.9531 33.32C83.6731 33.6667 84.4065 33.84 85.1531 33.84ZM99.7047 8.8H105.065V31.28C105.065 32.24 105.225 32.8933 105.545 33.24C105.865 33.56 106.305 33.72 106.865 33.72C107.291 33.72 107.731 33.6667 108.185 33.56C108.638 33.4533 109.038 33.32 109.385 33.16L110.105 37.24C109.385 37.5867 108.545 37.8533 107.585 38.04C106.625 38.2267 105.758 38.32 104.985 38.32C103.305 38.32 101.998 37.88 101.065 37C100.158 36.0933 99.7047 34.8133 99.7047 33.16V8.8ZM112.32 38V32.24H116.72V38H112.32Z" fill="black"/>
</svg>
