<svg width="162" height="50" viewBox="0 0 162 50" fill="none" xmlns="http://www.w3.org/2000/svg">
<path d="M0 40C0 45.5228 4.47715 50 10 50H40C45.5228 50 50 45.5228 50 40V10C50 4.47715 45.5228 -3.8147e-06 40 -3.8147e-06H10C4.47715 -3.8147e-06 0 4.47715 0 10V40Z" fill="black"/>
<path d="M40.2534 9.58205C27.6628 20.1933 26.2954 19.5812 24.7855 3.17488C23.2753 19.5812 21.9079 20.1933 9.31721 9.58205C19.9288 22.1727 19.3167 23.5401 2.9104 25.05C19.3167 26.5602 19.9288 27.9272 9.31721 40.5182C21.9079 29.9067 23.2753 30.5187 24.7855 46.925C26.2954 30.5187 27.6628 29.9067 40.2534 40.5182C29.6422 27.9272 30.2543 26.5602 46.6606 25.05C30.2543 23.5401 29.6422 22.1727 40.2534 9.58205Z" fill="white"/>
<path d="M75.0625 18.5511C74.911 17.2064 74.286 16.1648 73.1875 15.4261C72.089 14.678 70.7064 14.304 69.0398 14.304C67.8466 14.304 66.8144 14.4934 65.9432 14.8722C65.072 15.2415 64.3949 15.7528 63.9119 16.4062C63.4384 17.0502 63.2017 17.7841 63.2017 18.608C63.2017 19.2992 63.3627 19.8958 63.6847 20.3977C64.0161 20.8996 64.447 21.321 64.9773 21.6619C65.517 21.9934 66.0947 22.2727 66.7102 22.5C67.3258 22.7178 67.9176 22.8977 68.4858 23.0398L71.3267 23.7784C72.2547 24.0057 73.2064 24.3134 74.1818 24.7017C75.1572 25.09 76.0616 25.6013 76.8949 26.2358C77.7282 26.8703 78.4006 27.6562 78.9119 28.5938C79.4328 29.5312 79.6932 30.6534 79.6932 31.9602C79.6932 33.608 79.267 35.071 78.4148 36.3494C77.572 37.6278 76.3456 38.6364 74.7358 39.375C73.1354 40.1136 71.1989 40.483 68.9261 40.483C66.7481 40.483 64.8636 40.1373 63.2727 39.446C61.6818 38.7547 60.4366 37.7746 59.5369 36.5057C58.6373 35.2273 58.1402 33.7121 58.0455 31.9602H62.4489C62.5341 33.0114 62.875 33.8873 63.4716 34.5881C64.0777 35.2794 64.8494 35.7955 65.7869 36.1364C66.7339 36.4678 67.7708 36.6335 68.8977 36.6335C70.1383 36.6335 71.2415 36.4394 72.2074 36.0511C73.1828 35.6534 73.9498 35.1042 74.5085 34.4034C75.0672 33.6932 75.3466 32.8646 75.3466 31.9176C75.3466 31.0559 75.1004 30.3504 74.608 29.8011C74.125 29.2519 73.4669 28.7973 72.6335 28.4375C71.8097 28.0777 70.8769 27.7604 69.8352 27.4858L66.3977 26.5483C64.0682 25.9138 62.2216 24.9811 60.858 23.75C59.5038 22.5189 58.8267 20.8902 58.8267 18.8636C58.8267 17.1875 59.2813 15.7244 60.1903 14.4744C61.0994 13.2244 62.3305 12.2538 63.8835 11.5625C65.4366 10.8617 67.1884 10.5114 69.1392 10.5114C71.1089 10.5114 72.8466 10.857 74.3523 11.5483C75.8674 12.2396 77.0606 13.1913 77.9318 14.4034C78.803 15.6061 79.2576 16.9886 79.2955 18.5511H75.0625ZM84.5973 40V18.1818H88.8445V40H84.5973ZM86.7422 14.8153C86.0036 14.8153 85.3691 14.5691 84.8388 14.0767C84.3179 13.5748 84.0575 12.9782 84.0575 12.2869C84.0575 11.5862 84.3179 10.9896 84.8388 10.4972C85.3691 9.99526 86.0036 9.74432 86.7422 9.74432C87.4808 9.74432 88.1106 9.99526 88.6314 10.4972C89.1617 10.9896 89.4268 11.5862 89.4268 12.2869C89.4268 12.9782 89.1617 13.5748 88.6314 14.0767C88.1106 14.5691 87.4808 14.8153 86.7422 14.8153ZM94.5582 40V18.1818H98.6349V21.733H98.9048C99.3594 20.5303 100.103 19.5928 101.135 18.9205C102.167 18.2386 103.403 17.8977 104.842 17.8977C106.301 17.8977 107.522 18.2386 108.507 18.9205C109.501 19.6023 110.235 20.5398 110.709 21.733H110.936C111.457 20.5682 112.286 19.6402 113.422 18.9489C114.558 18.2481 115.912 17.8977 117.484 17.8977C119.464 17.8977 121.078 18.518 122.328 19.7585C123.588 20.9991 124.217 22.8693 124.217 25.3693V40H119.97V25.767C119.97 24.2898 119.568 23.2197 118.763 22.5568C117.958 21.8939 116.997 21.5625 115.879 21.5625C114.497 21.5625 113.422 21.9886 112.655 22.8409C111.888 23.6837 111.504 24.768 111.504 26.0938V40H107.271V25.4972C107.271 24.3134 106.902 23.3617 106.163 22.642C105.425 21.9223 104.464 21.5625 103.28 21.5625C102.475 21.5625 101.732 21.7756 101.05 22.2017C100.377 22.6184 99.8329 23.2008 99.4162 23.9489C99.009 24.697 98.8054 25.5634 98.8054 26.5483V40H94.5582ZM129.91 48.1818V18.1818H134.058V21.7188H134.413C134.659 21.2642 135.014 20.7386 135.478 20.142C135.942 19.5455 136.586 19.0246 137.41 18.5795C138.234 18.125 139.323 17.8977 140.677 17.8977C142.438 17.8977 144.01 18.3428 145.393 19.233C146.775 20.1231 147.86 21.4062 148.646 23.0824C149.441 24.7585 149.839 26.7756 149.839 29.1335C149.839 31.4915 149.446 33.5133 148.66 35.1989C147.874 36.875 146.794 38.1676 145.421 39.0767C144.048 39.9763 142.481 40.4261 140.719 40.4261C139.394 40.4261 138.309 40.2036 137.467 39.7585C136.633 39.3134 135.98 38.7926 135.506 38.196C135.033 37.5994 134.668 37.0691 134.413 36.6051H134.157V48.1818H129.91ZM134.072 29.0909C134.072 30.625 134.294 31.9697 134.739 33.125C135.184 34.2803 135.828 35.1847 136.671 35.8381C137.514 36.482 138.546 36.804 139.768 36.804C141.037 36.804 142.097 36.4678 142.95 35.7955C143.802 35.1136 144.446 34.1903 144.881 33.0256C145.326 31.8608 145.549 30.5492 145.549 29.0909C145.549 27.6515 145.331 26.3589 144.896 25.2131C144.469 24.0672 143.826 23.1629 142.964 22.5C142.112 21.8371 141.046 21.5057 139.768 21.5057C138.537 21.5057 137.495 21.8229 136.643 22.4574C135.8 23.0919 135.161 23.9773 134.725 25.1136C134.29 26.25 134.072 27.5758 134.072 29.0909ZM158.844 10.9091V40H154.597V10.9091H158.844Z" fill="black"/>
</svg>
