<svg width="189" height="189" viewBox="0 0 189 189" fill="none" xmlns="http://www.w3.org/2000/svg">
<path d="M0 168.976C0 180.022 8.9543 188.976 20 188.976H168.976C180.022 188.976 188.976 180.022 188.976 168.976V20.0001C188.976 8.95436 180.022 5.1954e-05 168.976 5.1954e-05H20C8.95429 5.1954e-05 0 8.95436 0 20.0001V168.976Z" fill="black"/>
<path d="M152.139 36.216C104.552 76.3213 99.384 74.008 93.6773 12C87.9693 74.008 82.8013 76.3213 35.2147 36.216C75.3213 83.8026 73.008 88.9706 11 94.6773C73.008 100.385 75.3213 105.552 35.2147 153.14C82.8013 113.033 87.9693 115.347 93.6773 177.355C99.384 115.347 104.552 113.033 152.139 153.14C112.033 105.552 114.347 100.385 176.355 94.6773C114.347 88.9706 112.033 83.8026 152.139 36.216Z" fill="white"/>
</svg>
