<svg width="188" height="45" viewBox="0 0 188 45" fill="none" xmlns="http://www.w3.org/2000/svg">
<path d="M14.4928 43H19.3237V28V23H14.4928H5.8681e-05V28H14.4928V43Z" fill="#8FD14F"/>
<path d="M24.1546 43H28.9855V18V13H24.1546L-3.46432e-05 13V18H24.1546V43Z" fill="#8FD14F"/>
<path d="M33.8164 43H38.6473V8V3H33.8164L-4.70834e-06 3V8L33.8164 8V43Z" fill="#8FD14F"/>
<path d="M63.7203 16.2756C63.6067 15.1297 63.119 14.2396 62.2572 13.6051C61.3955 12.9706 60.226 12.6534 58.7487 12.6534C57.7449 12.6534 56.8974 12.7955 56.2061 13.0795C55.5148 13.3542 54.9845 13.7377 54.6152 14.2301C54.2553 14.7225 54.0754 15.2812 54.0754 15.9062C54.0565 16.4271 54.1654 16.8816 54.4021 17.2699C54.6483 17.6581 54.9845 17.9943 55.4106 18.2784C55.8368 18.553 56.3292 18.7945 56.8879 19.0028C57.4466 19.2017 58.0432 19.3722 58.6777 19.5142L61.2913 20.1392C62.5603 20.4233 63.725 20.8021 64.7856 21.2756C65.8463 21.7491 66.7648 22.3314 67.5413 23.0227C68.3178 23.714 68.9192 24.5284 69.3453 25.4659C69.7809 26.4034 70.0034 27.4782 70.0129 28.6903C70.0034 30.4706 69.5489 32.0142 68.6493 33.321C67.7591 34.6184 66.4713 35.6269 64.7856 36.3466C63.1095 37.0568 61.0877 37.4119 58.7203 37.4119C56.3718 37.4119 54.3264 37.0521 52.5839 36.3324C50.851 35.6127 49.4968 34.5473 48.5214 33.1364C47.5555 31.7159 47.0489 29.9593 47.0016 27.8665H52.9533C53.0195 28.8419 53.2989 29.6562 53.7913 30.3097C54.2932 30.9536 54.9608 31.4413 55.7942 31.7727C56.637 32.0947 57.5887 32.2557 58.6493 32.2557C59.6909 32.2557 60.5953 32.1042 61.3623 31.8011C62.1389 31.4981 62.7402 31.0767 63.1663 30.5369C63.5925 29.9972 63.8055 29.3769 63.8055 28.6761C63.8055 28.0227 63.6114 27.4735 63.2231 27.0284C62.8444 26.5833 62.2856 26.2045 61.547 25.892C60.8178 25.5795 59.923 25.2955 58.8623 25.0398L55.6947 24.2443C53.2421 23.6477 51.3055 22.715 49.8851 21.446C48.4646 20.1771 47.7591 18.4678 47.7686 16.3182C47.7591 14.5568 48.2279 13.018 49.1748 11.7017C50.1313 10.3854 51.4428 9.35795 53.1095 8.61932C54.7762 7.88068 56.6701 7.51136 58.7913 7.51136C60.9504 7.51136 62.8349 7.88068 64.4447 8.61932C66.0641 9.35795 67.3235 10.3854 68.2231 11.7017C69.1228 13.018 69.5868 14.5426 69.6152 16.2756H63.7203Z" fill="#8FD14F"/>
<path d="M85.6415 15.1818V19.7273H72.5023V15.1818H85.6415ZM75.4852 9.95455H81.5364V30.2955C81.5364 30.8542 81.6216 31.2898 81.792 31.6023C81.9625 31.9053 82.1992 32.1184 82.5023 32.2415C82.8148 32.3646 83.1746 32.4261 83.5818 32.4261C83.8659 32.4261 84.15 32.4025 84.4341 32.3551C84.7182 32.2983 84.936 32.2557 85.0875 32.2273L86.0392 36.7301C85.7362 36.8248 85.31 36.9337 84.7608 37.0568C84.2115 37.1894 83.5439 37.2699 82.7579 37.2983C81.2996 37.3551 80.0212 37.161 78.9227 36.7159C77.8337 36.2708 76.9862 35.5795 76.3801 34.642C75.774 33.7045 75.4757 32.5208 75.4852 31.0909V9.95455ZM89.5832 37V15.1818H95.4497V18.9886H95.677C96.0747 17.6345 96.7423 16.6117 97.6798 15.9205C98.6173 15.2197 99.6969 14.8693 100.918 14.8693C101.221 14.8693 101.548 14.8883 101.899 14.9261C102.249 14.964 102.557 15.0161 102.822 15.0824V20.4517C102.538 20.3665 102.145 20.2907 101.643 20.2244C101.141 20.1581 100.682 20.125 100.265 20.125C99.3749 20.125 98.5794 20.3191 97.8787 20.7074C97.1874 21.0862 96.6382 21.6165 96.231 22.2983C95.8332 22.9801 95.6344 23.7661 95.6344 24.6562V37H89.5832ZM114.878 37.4261C112.634 37.4261 110.702 36.9716 109.083 36.0625C107.473 35.1439 106.232 33.8466 105.361 32.1705C104.49 30.4848 104.054 28.4915 104.054 26.1903C104.054 23.946 104.49 21.9763 105.361 20.2812C106.232 18.5862 107.458 17.2652 109.04 16.3182C110.631 15.3712 112.496 14.8977 114.636 14.8977C116.076 14.8977 117.416 15.1297 118.656 15.5938C119.906 16.0483 120.995 16.7348 121.923 17.6534C122.861 18.572 123.59 19.7273 124.111 21.1193C124.632 22.5019 124.892 24.1212 124.892 25.9773V27.6392H106.469V23.8892H119.196C119.196 23.018 119.007 22.2462 118.628 21.5739C118.249 20.9015 117.724 20.3759 117.051 19.9972C116.388 19.6089 115.617 19.4148 114.736 19.4148C113.817 19.4148 113.003 19.6278 112.293 20.054C111.592 20.4706 111.043 21.0341 110.645 21.7443C110.247 22.4451 110.044 23.2263 110.034 24.0881V27.6534C110.034 28.733 110.233 29.6657 110.631 30.4517C111.038 31.2377 111.611 31.8438 112.35 32.2699C113.088 32.696 113.964 32.9091 114.977 32.9091C115.65 32.9091 116.265 32.8144 116.824 32.625C117.383 32.4356 117.861 32.1515 118.259 31.7727C118.656 31.3939 118.959 30.9299 119.168 30.3807L124.764 30.75C124.48 32.0947 123.898 33.2689 123.017 34.2727C122.146 35.267 121.019 36.0436 119.636 36.6023C118.263 37.1515 116.677 37.4261 114.878 37.4261ZM135.063 37.4119C133.671 37.4119 132.43 37.1705 131.341 36.6875C130.252 36.1951 129.39 35.4706 128.756 34.5142C128.131 33.5483 127.818 32.3456 127.818 30.9062C127.818 29.6941 128.041 28.6761 128.486 27.8523C128.931 27.0284 129.537 26.3655 130.304 25.8636C131.071 25.3617 131.942 24.983 132.918 24.7273C133.903 24.4716 134.935 24.2917 136.014 24.1875C137.283 24.0549 138.306 23.9318 139.083 23.8182C139.859 23.6951 140.422 23.5152 140.773 23.2784C141.123 23.0417 141.298 22.6913 141.298 22.2273V22.142C141.298 21.2424 141.014 20.5464 140.446 20.054C139.887 19.5616 139.092 19.3153 138.06 19.3153C136.971 19.3153 136.104 19.5568 135.46 20.0398C134.816 20.5133 134.39 21.1098 134.182 21.8295L128.585 21.375C128.869 20.0492 129.428 18.9034 130.261 17.9375C131.095 16.9621 132.17 16.214 133.486 15.6932C134.812 15.1629 136.346 14.8977 138.088 14.8977C139.3 14.8977 140.46 15.0398 141.568 15.3239C142.686 15.608 143.675 16.0483 144.537 16.6449C145.408 17.2415 146.095 18.0085 146.597 18.946C147.099 19.8741 147.35 20.9867 147.35 22.2841V37H141.611V33.9744H141.44C141.09 34.6562 140.621 35.2576 140.034 35.7784C139.447 36.2898 138.742 36.6922 137.918 36.9858C137.094 37.2699 136.142 37.4119 135.063 37.4119ZM136.796 33.2358C137.686 33.2358 138.472 33.0606 139.154 32.7102C139.835 32.3504 140.37 31.8674 140.759 31.2614C141.147 30.6553 141.341 29.9687 141.341 29.2017V26.8864C141.152 27.0095 140.891 27.1231 140.56 27.2273C140.238 27.322 139.873 27.4119 139.466 27.4972C139.059 27.5729 138.652 27.6439 138.244 27.7102C137.837 27.767 137.468 27.8191 137.136 27.8665C136.426 27.9706 135.806 28.1364 135.276 28.3636C134.745 28.5909 134.333 28.8987 134.04 29.2869C133.746 29.6657 133.6 30.1392 133.6 30.7074C133.6 31.5312 133.898 32.161 134.494 32.5966C135.101 33.0227 135.868 33.2358 136.796 33.2358ZM152.044 37V15.1818H157.811V19.0312H158.067C158.521 17.7528 159.279 16.7443 160.34 16.0057C161.4 15.267 162.669 14.8977 164.146 14.8977C165.643 14.8977 166.916 15.2718 167.967 16.0199C169.019 16.7585 169.719 17.7623 170.07 19.0312H170.297C170.742 17.7812 171.547 16.7822 172.712 16.0341C173.886 15.2765 175.273 14.8977 176.874 14.8977C178.91 14.8977 180.562 15.5464 181.831 16.8438C183.11 18.1316 183.749 19.9593 183.749 22.3267V37H177.712V23.5199C177.712 22.3078 177.39 21.3987 176.746 20.7926C176.102 20.1866 175.297 19.8835 174.331 19.8835C173.233 19.8835 172.376 20.2339 171.76 20.9347C171.145 21.6259 170.837 22.5398 170.837 23.6761V37H164.97V23.392C164.97 22.322 164.663 21.4697 164.047 20.8352C163.441 20.2008 162.641 19.8835 161.646 19.8835C160.974 19.8835 160.368 20.054 159.828 20.3949C159.298 20.7263 158.877 21.1951 158.564 21.8011C158.252 22.3977 158.095 23.0985 158.095 23.9034V37H152.044Z" fill="white"/>
</svg>
